<svg width="72" height="72" viewBox="0 0 72 72" fill="none" xmlns="http://www.w3.org/2000/svg">
<rect x="1" y="1" width="70" height="70" rx="35" stroke="white" stroke-width="2"/>
<path d="M29 29.1429C29 28.8398 29.1229 28.5491 29.3417 28.3347C29.5605 28.1204 29.8572 28 30.1667 28H32.5C32.8094 28 33.1062 28.1204 33.325 28.3347C33.5437 28.5491 33.6667 28.8398 33.6667 29.1429V42.8571C33.6667 43.1602 33.5437 43.4509 33.325 43.6653C33.1062 43.8796 32.8094 44 32.5 44H30.1667C29.8572 44 29.5605 43.8796 29.3417 43.6653C29.1229 43.4509 29 43.1602 29 42.8571V29.1429Z" stroke="white" stroke-width="2" stroke-linecap="round" stroke-linejoin="round"/>
<path d="M38.3333 29.1429C38.3333 28.8398 38.4562 28.5491 38.675 28.3347C38.8938 28.1204 39.1906 28 39.5 28H41.8333C42.1428 28 42.4395 28.1204 42.6583 28.3347C42.8771 28.5491 43 28.8398 43 29.1429V42.8571C43 43.1602 42.8771 43.4509 42.6583 43.6653C42.4395 43.8796 42.1428 44 41.8333 44H39.5C39.1906 44 38.8938 43.8796 38.675 43.6653C38.4562 43.4509 38.3333 43.1602 38.3333 42.8571V29.1429Z" stroke="white" stroke-width="2" stroke-linecap="round" stroke-linejoin="round"/>
</svg>
