<svg width="145" height="27" viewBox="0 0 145 27" fill="none" xmlns="http://www.w3.org/2000/svg">
<path d="M24.05 23.75C24.05 25.75 22.75 26.75 20.15 26.75C17.55 26.75 15.8667 25.8833 15.1 24.15C13 25.8833 10.6833 26.75 8.15 26.75C5.61667 26.75 3.61667 26.1333 2.15 24.9C0.716667 23.6333 5.96046e-08 21.9167 5.96046e-08 19.75C5.96046e-08 17.55 0.85 15.75 2.55 14.35C4.25 12.95 6.93333 12.25 10.6 12.25C12.0333 12.25 13.4 12.35 14.7 12.55V10.35C14.7 8.05 14.3167 6.41667 13.55 5.45C12.8167 4.48333 11.8 4 10.5 4C9.2 4 8.15 4.41667 7.35 5.25C6.58333 6.08333 6.2 7.21667 6.2 8.65C4.86667 8.78333 3.75 8.58333 2.85 8.05C1.98333 7.48333 1.55 6.63333 1.55 5.5C1.55 3.9 2.38333 2.58333 4.05 1.55C5.71667 0.516665 7.86667 -2.02656e-06 10.5 -2.02656e-06C17.3667 -2.02656e-06 20.8 3.33333 20.8 10V23.35L24.05 23.75ZM14.7 16.3C13.5 15.8667 12.2333 15.65 10.9 15.65C9.6 15.65 8.51667 15.9667 7.65 16.6C6.78333 17.2 6.35 18.0667 6.35 19.2C6.35 21.5333 7.55 22.7 9.95 22.7C11.65 22.7 13.2333 22.2167 14.7 21.25V16.3ZM39.0742 3.9C39.0742 1.8 39.8076 0.75 41.2742 0.75H49.0742V22.65H50.1742C51.3076 22.6833 51.8742 23.7333 51.8742 25.8L44.7742 26.5L43.7242 23.7C41.3576 25.7333 38.9076 26.75 36.3742 26.75C33.8742 26.75 31.7242 25.9 29.9242 24.2C28.1242 22.4667 27.2242 19.8167 27.2242 16.25V4.3H23.5742V3.9C23.5742 1.8 24.3076 0.75 25.7742 0.75H33.3242V16.5C33.3242 18.5667 33.7242 20.0333 34.5242 20.9C35.3242 21.7667 36.5576 22.2 38.2242 22.2C39.8909 22.2 41.4742 21.6333 42.9742 20.5V4.3H39.0742V3.9ZM62.7535 4.4C63.5535 3.33333 64.6868 2.33333 66.1535 1.4C67.6535 0.466665 68.9369 -2.02656e-06 70.0035 -2.02656e-06C71.1035 -2.02656e-06 72.0202 0.349998 72.7535 1.05C73.4868 1.75 73.8535 2.91667 73.8535 4.55C73.8535 6.15 73.3035 7.43333 72.2035 8.4C71.6368 8.83333 70.6868 8.96667 69.3535 8.8C69.3535 7.7 69.2535 6.86667 69.0535 6.3C68.8535 5.7 68.6369 5.35 68.4035 5.25C68.1702 5.11667 67.8535 5.05 67.4535 5.05C65.7868 5.05 64.2868 6.13333 62.9535 8.3V22.45L67.0035 22.75C67.2035 24.9167 66.4535 26 64.7535 26H53.2035C53.2035 26 53.2035 25.8667 53.2035 25.6C53.2035 23.7667 53.9368 22.7833 55.4035 22.65L56.8535 22.55V4.65L54.6535 4.4C53.6202 4.3 53.1035 3.3 53.1035 1.4L62.1535 0.249998L62.6035 4.4H62.7535ZM90.0168 6.5C89.0835 4.73333 87.7501 3.85 86.0168 3.85C84.2835 3.85 82.9335 4.71667 81.9668 6.45C81.0335 8.18333 80.5668 10.55 80.5668 13.55C80.5668 16.5167 81.0335 18.8333 81.9668 20.5C82.9335 22.1333 84.2835 22.95 86.0168 22.95C87.7501 22.95 89.0835 22.15 90.0168 20.55C90.9835 18.9167 91.4668 16.6167 91.4668 13.65C91.4668 10.65 90.9835 8.26667 90.0168 6.5ZM74.2168 13.8C74.2168 9.53333 75.2668 6.16667 77.3668 3.7C79.5001 1.23333 82.4501 -2.02656e-06 86.2168 -2.02656e-06C89.9835 -2.02656e-06 92.8501 1.18333 94.8168 3.55C96.8168 5.91667 97.8168 9.2 97.8168 13.4C97.8168 17.5667 96.7501 20.8333 94.6168 23.2C92.4835 25.5667 89.5001 26.75 85.6668 26.75C81.8668 26.75 79.0001 25.65 77.0668 23.45C75.1668 21.25 74.2168 18.0333 74.2168 13.8ZM109.216 4.4C110.016 3.33333 111.15 2.33333 112.616 1.4C114.116 0.466665 115.4 -2.02656e-06 116.466 -2.02656e-06C117.566 -2.02656e-06 118.483 0.349998 119.216 1.05C119.95 1.75 120.316 2.91667 120.316 4.55C120.316 6.15 119.766 7.43333 118.666 8.4C118.1 8.83333 117.15 8.96667 115.816 8.8C115.816 7.7 115.716 6.86667 115.516 6.3C115.316 5.7 115.1 5.35 114.866 5.25C114.633 5.11667 114.316 5.05 113.916 5.05C112.25 5.05 110.75 6.13333 109.416 8.3V22.45L113.466 22.75C113.666 24.9167 112.916 26 111.216 26H99.6664C99.6664 26 99.6664 25.8667 99.6664 25.6C99.6664 23.7667 100.4 22.7833 101.866 22.65L103.316 22.55V4.65L101.116 4.4C100.083 4.3 99.5664 3.3 99.5664 1.4L108.616 0.249998L109.066 4.4H109.216ZM144.48 23.75C144.48 25.75 143.18 26.75 140.58 26.75C137.98 26.75 136.296 25.8833 135.53 24.15C133.43 25.8833 131.113 26.75 128.58 26.75C126.046 26.75 124.046 26.1333 122.58 24.9C121.146 23.6333 120.43 21.9167 120.43 19.75C120.43 17.55 121.28 15.75 122.98 14.35C124.68 12.95 127.363 12.25 131.03 12.25C132.463 12.25 133.83 12.35 135.13 12.55V10.35C135.13 8.05 134.746 6.41667 133.98 5.45C133.246 4.48333 132.23 4 130.93 4C129.63 4 128.58 4.41667 127.78 5.25C127.013 6.08333 126.63 7.21667 126.63 8.65C125.296 8.78333 124.18 8.58333 123.28 8.05C122.413 7.48333 121.98 6.63333 121.98 5.5C121.98 3.9 122.813 2.58333 124.48 1.55C126.146 0.516665 128.296 -2.02656e-06 130.93 -2.02656e-06C137.796 -2.02656e-06 141.23 3.33333 141.23 10V23.35L144.48 23.75ZM135.13 16.3C133.93 15.8667 132.663 15.65 131.33 15.65C130.03 15.65 128.946 15.9667 128.08 16.6C127.213 17.2 126.78 18.0667 126.78 19.2C126.78 21.5333 127.98 22.7 130.38 22.7C132.08 22.7 133.663 22.2167 135.13 21.25V16.3Z" fill="#BBBBBB"/>
</svg>
